<mxfile host="app.diagrams.net" modified="2023-11-18T09:28:01.537Z" agent="Mozilla/5.0 (Windows NT 10.0; Win64; x64) AppleWebKit/537.36 (KHTML, like Gecko) Chrome/119.0.0.0 Safari/537.36" etag="pTMt4zoTRcy2ck8WBRZv" version="22.1.3" type="device">
  <diagram name="Page-1" id="Qw9DL4A-44Zbdkcv3ooG">
    <mxGraphModel dx="2085" dy="1367" grid="1" gridSize="10" guides="1" tooltips="1" connect="1" arrows="1" fold="1" page="1" pageScale="1" pageWidth="827" pageHeight="1169" math="0" shadow="0">
      <root>
        <mxCell id="0" />
        <mxCell id="1" parent="0" />
        <mxCell id="whqrFeRvGs1NHrdnqAI_-15" value="" style="edgeStyle=orthogonalEdgeStyle;rounded=0;orthogonalLoop=1;jettySize=auto;html=1;" edge="1" parent="1" source="whqrFeRvGs1NHrdnqAI_-1" target="whqrFeRvGs1NHrdnqAI_-4">
          <mxGeometry relative="1" as="geometry" />
        </mxCell>
        <mxCell id="whqrFeRvGs1NHrdnqAI_-16" value="" style="edgeStyle=orthogonalEdgeStyle;rounded=0;orthogonalLoop=1;jettySize=auto;html=1;" edge="1" parent="1" source="whqrFeRvGs1NHrdnqAI_-1" target="whqrFeRvGs1NHrdnqAI_-5">
          <mxGeometry relative="1" as="geometry" />
        </mxCell>
        <mxCell id="whqrFeRvGs1NHrdnqAI_-1" value="diving watch" style="ellipse;whiteSpace=wrap;html=1;" vertex="1" parent="1">
          <mxGeometry x="380" y="380" width="120" height="80" as="geometry" />
        </mxCell>
        <mxCell id="whqrFeRvGs1NHrdnqAI_-34" value="" style="edgeStyle=orthogonalEdgeStyle;rounded=0;orthogonalLoop=1;jettySize=auto;html=1;entryX=0.5;entryY=1;entryDx=0;entryDy=0;" edge="1" parent="1" source="whqrFeRvGs1NHrdnqAI_-2" target="whqrFeRvGs1NHrdnqAI_-6">
          <mxGeometry relative="1" as="geometry">
            <mxPoint x="640" y="320" as="targetPoint" />
          </mxGeometry>
        </mxCell>
        <mxCell id="whqrFeRvGs1NHrdnqAI_-2" value="Interaction" style="ellipse;whiteSpace=wrap;html=1;" vertex="1" parent="1">
          <mxGeometry x="380" y="280" width="120" height="80" as="geometry" />
        </mxCell>
        <mxCell id="whqrFeRvGs1NHrdnqAI_-21" value="" style="edgeStyle=orthogonalEdgeStyle;rounded=0;orthogonalLoop=1;jettySize=auto;html=1;" edge="1" parent="1" source="whqrFeRvGs1NHrdnqAI_-3" target="whqrFeRvGs1NHrdnqAI_-10">
          <mxGeometry relative="1" as="geometry" />
        </mxCell>
        <mxCell id="whqrFeRvGs1NHrdnqAI_-23" value="" style="edgeStyle=orthogonalEdgeStyle;rounded=0;orthogonalLoop=1;jettySize=auto;html=1;entryX=1;entryY=0.5;entryDx=0;entryDy=0;" edge="1" parent="1" source="whqrFeRvGs1NHrdnqAI_-3" target="whqrFeRvGs1NHrdnqAI_-11">
          <mxGeometry relative="1" as="geometry">
            <mxPoint x="290" y="290" as="targetPoint" />
          </mxGeometry>
        </mxCell>
        <mxCell id="whqrFeRvGs1NHrdnqAI_-3" value="Control" style="ellipse;whiteSpace=wrap;html=1;" vertex="1" parent="1">
          <mxGeometry x="230" y="380" width="120" height="80" as="geometry" />
        </mxCell>
        <mxCell id="whqrFeRvGs1NHrdnqAI_-28" value="" style="edgeStyle=orthogonalEdgeStyle;rounded=0;orthogonalLoop=1;jettySize=auto;html=1;" edge="1" parent="1" source="whqrFeRvGs1NHrdnqAI_-4" target="whqrFeRvGs1NHrdnqAI_-12">
          <mxGeometry relative="1" as="geometry" />
        </mxCell>
        <mxCell id="whqrFeRvGs1NHrdnqAI_-30" value="" style="edgeStyle=orthogonalEdgeStyle;rounded=0;orthogonalLoop=1;jettySize=auto;html=1;entryX=0;entryY=0.5;entryDx=0;entryDy=0;" edge="1" parent="1" source="whqrFeRvGs1NHrdnqAI_-4" target="whqrFeRvGs1NHrdnqAI_-13">
          <mxGeometry relative="1" as="geometry">
            <mxPoint x="590" y="300" as="targetPoint" />
          </mxGeometry>
        </mxCell>
        <mxCell id="whqrFeRvGs1NHrdnqAI_-4" value="Functions" style="ellipse;whiteSpace=wrap;html=1;" vertex="1" parent="1">
          <mxGeometry x="530" y="380" width="120" height="80" as="geometry" />
        </mxCell>
        <mxCell id="whqrFeRvGs1NHrdnqAI_-25" value="" style="edgeStyle=orthogonalEdgeStyle;rounded=0;orthogonalLoop=1;jettySize=auto;html=1;entryX=0.5;entryY=0;entryDx=0;entryDy=0;" edge="1" parent="1" source="whqrFeRvGs1NHrdnqAI_-5" target="whqrFeRvGs1NHrdnqAI_-9">
          <mxGeometry relative="1" as="geometry">
            <mxPoint x="600" y="530" as="targetPoint" />
          </mxGeometry>
        </mxCell>
        <mxCell id="whqrFeRvGs1NHrdnqAI_-27" value="" style="edgeStyle=orthogonalEdgeStyle;rounded=0;orthogonalLoop=1;jettySize=auto;html=1;entryX=0.5;entryY=0;entryDx=0;entryDy=0;" edge="1" parent="1" source="whqrFeRvGs1NHrdnqAI_-5" target="whqrFeRvGs1NHrdnqAI_-8">
          <mxGeometry relative="1" as="geometry">
            <mxPoint x="280" y="530" as="targetPoint" />
          </mxGeometry>
        </mxCell>
        <mxCell id="whqrFeRvGs1NHrdnqAI_-5" value="Metaphors" style="ellipse;whiteSpace=wrap;html=1;" vertex="1" parent="1">
          <mxGeometry x="380" y="490" width="120" height="80" as="geometry" />
        </mxCell>
        <mxCell id="whqrFeRvGs1NHrdnqAI_-89" value="" style="edgeStyle=orthogonalEdgeStyle;rounded=0;orthogonalLoop=1;jettySize=auto;html=1;" edge="1" parent="1" source="whqrFeRvGs1NHrdnqAI_-6" target="whqrFeRvGs1NHrdnqAI_-83">
          <mxGeometry relative="1" as="geometry" />
        </mxCell>
        <mxCell id="whqrFeRvGs1NHrdnqAI_-6" value="Phone" style="ellipse;whiteSpace=wrap;html=1;" vertex="1" parent="1">
          <mxGeometry x="320" y="160" width="120" height="80" as="geometry" />
        </mxCell>
        <mxCell id="whqrFeRvGs1NHrdnqAI_-91" value="" style="edgeStyle=orthogonalEdgeStyle;rounded=0;orthogonalLoop=1;jettySize=auto;html=1;" edge="1" parent="1" source="whqrFeRvGs1NHrdnqAI_-7" target="whqrFeRvGs1NHrdnqAI_-87">
          <mxGeometry relative="1" as="geometry" />
        </mxCell>
        <mxCell id="whqrFeRvGs1NHrdnqAI_-7" value="Device" style="ellipse;whiteSpace=wrap;html=1;" vertex="1" parent="1">
          <mxGeometry x="460" y="160" width="120" height="80" as="geometry" />
        </mxCell>
        <mxCell id="whqrFeRvGs1NHrdnqAI_-80" value="" style="edgeStyle=orthogonalEdgeStyle;rounded=0;orthogonalLoop=1;jettySize=auto;html=1;" edge="1" parent="1" source="whqrFeRvGs1NHrdnqAI_-8" target="whqrFeRvGs1NHrdnqAI_-75">
          <mxGeometry relative="1" as="geometry" />
        </mxCell>
        <mxCell id="whqrFeRvGs1NHrdnqAI_-8" value="Device" style="ellipse;whiteSpace=wrap;html=1;" vertex="1" parent="1">
          <mxGeometry x="280" y="610" width="120" height="80" as="geometry" />
        </mxCell>
        <mxCell id="whqrFeRvGs1NHrdnqAI_-76" value="" style="edgeStyle=orthogonalEdgeStyle;rounded=0;orthogonalLoop=1;jettySize=auto;html=1;" edge="1" parent="1" source="whqrFeRvGs1NHrdnqAI_-9" target="whqrFeRvGs1NHrdnqAI_-73">
          <mxGeometry relative="1" as="geometry" />
        </mxCell>
        <mxCell id="whqrFeRvGs1NHrdnqAI_-9" value="Phone" style="ellipse;whiteSpace=wrap;html=1;" vertex="1" parent="1">
          <mxGeometry x="485" y="610" width="120" height="80" as="geometry" />
        </mxCell>
        <mxCell id="whqrFeRvGs1NHrdnqAI_-118" value="" style="edgeStyle=orthogonalEdgeStyle;rounded=0;orthogonalLoop=1;jettySize=auto;html=1;entryX=1;entryY=0.5;entryDx=0;entryDy=0;exitX=0.5;exitY=1;exitDx=0;exitDy=0;" edge="1" parent="1" source="whqrFeRvGs1NHrdnqAI_-10" target="whqrFeRvGs1NHrdnqAI_-105">
          <mxGeometry relative="1" as="geometry">
            <mxPoint x="150" y="550" as="sourcePoint" />
          </mxGeometry>
        </mxCell>
        <mxCell id="whqrFeRvGs1NHrdnqAI_-10" value="Phone" style="ellipse;whiteSpace=wrap;html=1;" vertex="1" parent="1">
          <mxGeometry x="70" y="440" width="120" height="80" as="geometry" />
        </mxCell>
        <mxCell id="whqrFeRvGs1NHrdnqAI_-108" value="" style="edgeStyle=orthogonalEdgeStyle;rounded=0;orthogonalLoop=1;jettySize=auto;html=1;entryX=1;entryY=0.5;entryDx=0;entryDy=0;" edge="1" parent="1" source="whqrFeRvGs1NHrdnqAI_-11" target="whqrFeRvGs1NHrdnqAI_-103">
          <mxGeometry relative="1" as="geometry" />
        </mxCell>
        <mxCell id="whqrFeRvGs1NHrdnqAI_-11" value="Device" style="ellipse;whiteSpace=wrap;html=1;" vertex="1" parent="1">
          <mxGeometry x="70" y="310" width="120" height="80" as="geometry" />
        </mxCell>
        <mxCell id="whqrFeRvGs1NHrdnqAI_-60" value="" style="edgeStyle=orthogonalEdgeStyle;rounded=0;orthogonalLoop=1;jettySize=auto;html=1;" edge="1" parent="1" source="whqrFeRvGs1NHrdnqAI_-12" target="whqrFeRvGs1NHrdnqAI_-46">
          <mxGeometry relative="1" as="geometry" />
        </mxCell>
        <mxCell id="whqrFeRvGs1NHrdnqAI_-12" value="phone" style="ellipse;whiteSpace=wrap;html=1;" vertex="1" parent="1">
          <mxGeometry x="680" y="430" width="120" height="80" as="geometry" />
        </mxCell>
        <mxCell id="whqrFeRvGs1NHrdnqAI_-51" value="" style="edgeStyle=orthogonalEdgeStyle;rounded=0;orthogonalLoop=1;jettySize=auto;html=1;" edge="1" parent="1" source="whqrFeRvGs1NHrdnqAI_-13" target="whqrFeRvGs1NHrdnqAI_-49">
          <mxGeometry relative="1" as="geometry" />
        </mxCell>
        <mxCell id="whqrFeRvGs1NHrdnqAI_-13" value="Device" style="ellipse;whiteSpace=wrap;html=1;" vertex="1" parent="1">
          <mxGeometry x="680" y="330" width="120" height="80" as="geometry" />
        </mxCell>
        <mxCell id="whqrFeRvGs1NHrdnqAI_-14" value="" style="endArrow=classic;html=1;rounded=0;exitX=0.5;exitY=0;exitDx=0;exitDy=0;entryX=0.5;entryY=1;entryDx=0;entryDy=0;" edge="1" parent="1" source="whqrFeRvGs1NHrdnqAI_-1" target="whqrFeRvGs1NHrdnqAI_-2">
          <mxGeometry width="50" height="50" relative="1" as="geometry">
            <mxPoint x="490" y="390" as="sourcePoint" />
            <mxPoint x="540" y="340" as="targetPoint" />
          </mxGeometry>
        </mxCell>
        <mxCell id="whqrFeRvGs1NHrdnqAI_-20" value="" style="endArrow=classic;html=1;rounded=0;exitX=0;exitY=0.5;exitDx=0;exitDy=0;entryX=1;entryY=0.5;entryDx=0;entryDy=0;" edge="1" parent="1" source="whqrFeRvGs1NHrdnqAI_-1" target="whqrFeRvGs1NHrdnqAI_-3">
          <mxGeometry width="50" height="50" relative="1" as="geometry">
            <mxPoint x="370" y="420" as="sourcePoint" />
            <mxPoint x="420" y="370" as="targetPoint" />
          </mxGeometry>
        </mxCell>
        <mxCell id="whqrFeRvGs1NHrdnqAI_-36" value="" style="edgeStyle=orthogonalEdgeStyle;rounded=0;orthogonalLoop=1;jettySize=auto;html=1;entryX=0.5;entryY=1;entryDx=0;entryDy=0;exitX=0.5;exitY=0;exitDx=0;exitDy=0;" edge="1" parent="1" source="whqrFeRvGs1NHrdnqAI_-2" target="whqrFeRvGs1NHrdnqAI_-7">
          <mxGeometry relative="1" as="geometry">
            <mxPoint x="450" y="290" as="sourcePoint" />
            <mxPoint x="390" y="250" as="targetPoint" />
          </mxGeometry>
        </mxCell>
        <mxCell id="whqrFeRvGs1NHrdnqAI_-37" value="Display date, time, temperature" style="rounded=0;whiteSpace=wrap;html=1;" vertex="1" parent="1">
          <mxGeometry x="900" y="100" width="180" height="30" as="geometry" />
        </mxCell>
        <mxCell id="whqrFeRvGs1NHrdnqAI_-40" value="Displays battery percentage" style="rounded=0;whiteSpace=wrap;html=1;" vertex="1" parent="1">
          <mxGeometry x="900" y="50" width="180" height="30" as="geometry" />
        </mxCell>
        <mxCell id="whqrFeRvGs1NHrdnqAI_-41" value="Displays depth and diving time" style="rounded=0;whiteSpace=wrap;html=1;" vertex="1" parent="1">
          <mxGeometry x="900" y="140" width="180" height="30" as="geometry" />
        </mxCell>
        <mxCell id="whqrFeRvGs1NHrdnqAI_-42" value="Check the amount of oxygen in the tank" style="rounded=0;whiteSpace=wrap;html=1;" vertex="1" parent="1">
          <mxGeometry x="900" y="228" width="180" height="30" as="geometry" />
        </mxCell>
        <mxCell id="whqrFeRvGs1NHrdnqAI_-43" value="Measure heartbeat" style="rounded=0;whiteSpace=wrap;html=1;" vertex="1" parent="1">
          <mxGeometry x="900" y="190" width="180" height="30" as="geometry" />
        </mxCell>
        <mxCell id="whqrFeRvGs1NHrdnqAI_-44" value="determine the direction" style="rounded=0;whiteSpace=wrap;html=1;" vertex="1" parent="1">
          <mxGeometry x="900" y="266" width="180" height="30" as="geometry" />
        </mxCell>
        <mxCell id="whqrFeRvGs1NHrdnqAI_-45" value="share moments" style="rounded=0;whiteSpace=wrap;html=1;" vertex="1" parent="1">
          <mxGeometry x="890" y="470" width="180" height="30" as="geometry" />
        </mxCell>
        <mxCell id="whqrFeRvGs1NHrdnqAI_-46" value="View images and videos" style="rounded=0;whiteSpace=wrap;html=1;" vertex="1" parent="1">
          <mxGeometry x="890" y="430" width="180" height="30" as="geometry" />
        </mxCell>
        <mxCell id="whqrFeRvGs1NHrdnqAI_-47" value="take a photo" style="rounded=0;whiteSpace=wrap;html=1;" vertex="1" parent="1">
          <mxGeometry x="900" y="316" width="180" height="30" as="geometry" />
        </mxCell>
        <mxCell id="whqrFeRvGs1NHrdnqAI_-48" value="See the list of diving locations and details of that diving trip" style="rounded=0;whiteSpace=wrap;html=1;" vertex="1" parent="1">
          <mxGeometry x="890" y="530" width="180" height="30" as="geometry" />
        </mxCell>
        <mxCell id="whqrFeRvGs1NHrdnqAI_-49" value="record video" style="rounded=0;whiteSpace=wrap;html=1;" vertex="1" parent="1">
          <mxGeometry x="900" y="356" width="180" height="30" as="geometry" />
        </mxCell>
        <mxCell id="whqrFeRvGs1NHrdnqAI_-52" value="" style="edgeStyle=orthogonalEdgeStyle;rounded=0;orthogonalLoop=1;jettySize=auto;html=1;entryX=0;entryY=0.5;entryDx=0;entryDy=0;exitX=1;exitY=0.5;exitDx=0;exitDy=0;" edge="1" parent="1" source="whqrFeRvGs1NHrdnqAI_-13" target="whqrFeRvGs1NHrdnqAI_-40">
          <mxGeometry relative="1" as="geometry">
            <mxPoint x="810" y="380" as="sourcePoint" />
            <mxPoint x="910" y="395" as="targetPoint" />
          </mxGeometry>
        </mxCell>
        <mxCell id="whqrFeRvGs1NHrdnqAI_-53" value="" style="edgeStyle=orthogonalEdgeStyle;rounded=0;orthogonalLoop=1;jettySize=auto;html=1;entryX=0;entryY=0.75;entryDx=0;entryDy=0;exitX=1;exitY=0.5;exitDx=0;exitDy=0;" edge="1" parent="1" source="whqrFeRvGs1NHrdnqAI_-13" target="whqrFeRvGs1NHrdnqAI_-37">
          <mxGeometry relative="1" as="geometry">
            <mxPoint x="810" y="380" as="sourcePoint" />
            <mxPoint x="910" y="395" as="targetPoint" />
          </mxGeometry>
        </mxCell>
        <mxCell id="whqrFeRvGs1NHrdnqAI_-54" value="" style="edgeStyle=orthogonalEdgeStyle;rounded=0;orthogonalLoop=1;jettySize=auto;html=1;entryX=0;entryY=0.5;entryDx=0;entryDy=0;" edge="1" parent="1" target="whqrFeRvGs1NHrdnqAI_-41">
          <mxGeometry relative="1" as="geometry">
            <mxPoint x="800" y="370" as="sourcePoint" />
            <mxPoint x="910" y="133" as="targetPoint" />
          </mxGeometry>
        </mxCell>
        <mxCell id="whqrFeRvGs1NHrdnqAI_-55" value="" style="edgeStyle=orthogonalEdgeStyle;rounded=0;orthogonalLoop=1;jettySize=auto;html=1;entryX=0;entryY=0.75;entryDx=0;entryDy=0;exitX=1;exitY=0.5;exitDx=0;exitDy=0;" edge="1" parent="1" source="whqrFeRvGs1NHrdnqAI_-13" target="whqrFeRvGs1NHrdnqAI_-43">
          <mxGeometry relative="1" as="geometry">
            <mxPoint x="830" y="400" as="sourcePoint" />
            <mxPoint x="910" y="165" as="targetPoint" />
          </mxGeometry>
        </mxCell>
        <mxCell id="whqrFeRvGs1NHrdnqAI_-56" value="" style="edgeStyle=orthogonalEdgeStyle;rounded=0;orthogonalLoop=1;jettySize=auto;html=1;entryX=0;entryY=0.75;entryDx=0;entryDy=0;exitX=1;exitY=0.5;exitDx=0;exitDy=0;" edge="1" parent="1" source="whqrFeRvGs1NHrdnqAI_-13" target="whqrFeRvGs1NHrdnqAI_-42">
          <mxGeometry relative="1" as="geometry">
            <mxPoint x="840" y="410" as="sourcePoint" />
            <mxPoint x="910" y="223" as="targetPoint" />
          </mxGeometry>
        </mxCell>
        <mxCell id="whqrFeRvGs1NHrdnqAI_-57" value="" style="edgeStyle=orthogonalEdgeStyle;rounded=0;orthogonalLoop=1;jettySize=auto;html=1;entryX=0;entryY=0.5;entryDx=0;entryDy=0;exitX=1;exitY=0.5;exitDx=0;exitDy=0;" edge="1" parent="1" source="whqrFeRvGs1NHrdnqAI_-13" target="whqrFeRvGs1NHrdnqAI_-44">
          <mxGeometry relative="1" as="geometry">
            <mxPoint x="860" y="421" as="sourcePoint" />
            <mxPoint x="910" y="268" as="targetPoint" />
          </mxGeometry>
        </mxCell>
        <mxCell id="whqrFeRvGs1NHrdnqAI_-58" value="" style="edgeStyle=orthogonalEdgeStyle;rounded=0;orthogonalLoop=1;jettySize=auto;html=1;entryX=0;entryY=0.5;entryDx=0;entryDy=0;exitX=1;exitY=0.5;exitDx=0;exitDy=0;" edge="1" parent="1" source="whqrFeRvGs1NHrdnqAI_-13" target="whqrFeRvGs1NHrdnqAI_-47">
          <mxGeometry relative="1" as="geometry">
            <mxPoint x="860" y="430" as="sourcePoint" />
            <mxPoint x="910" y="305" as="targetPoint" />
          </mxGeometry>
        </mxCell>
        <mxCell id="whqrFeRvGs1NHrdnqAI_-59" value="Connects to diving watch" style="rounded=0;whiteSpace=wrap;html=1;" vertex="1" parent="1">
          <mxGeometry x="890" y="580" width="180" height="30" as="geometry" />
        </mxCell>
        <mxCell id="whqrFeRvGs1NHrdnqAI_-61" value="" style="edgeStyle=orthogonalEdgeStyle;rounded=0;orthogonalLoop=1;jettySize=auto;html=1;entryX=0;entryY=0.75;entryDx=0;entryDy=0;exitX=1;exitY=0.5;exitDx=0;exitDy=0;" edge="1" parent="1" source="whqrFeRvGs1NHrdnqAI_-12" target="whqrFeRvGs1NHrdnqAI_-59">
          <mxGeometry relative="1" as="geometry">
            <mxPoint x="810" y="480" as="sourcePoint" />
            <mxPoint x="900" y="455" as="targetPoint" />
          </mxGeometry>
        </mxCell>
        <mxCell id="whqrFeRvGs1NHrdnqAI_-62" value="" style="edgeStyle=orthogonalEdgeStyle;rounded=0;orthogonalLoop=1;jettySize=auto;html=1;entryX=0;entryY=0.75;entryDx=0;entryDy=0;exitX=1;exitY=0.5;exitDx=0;exitDy=0;" edge="1" parent="1" source="whqrFeRvGs1NHrdnqAI_-12" target="whqrFeRvGs1NHrdnqAI_-48">
          <mxGeometry relative="1" as="geometry">
            <mxPoint x="820" y="490" as="sourcePoint" />
            <mxPoint x="900" y="613" as="targetPoint" />
          </mxGeometry>
        </mxCell>
        <mxCell id="whqrFeRvGs1NHrdnqAI_-63" value="" style="edgeStyle=orthogonalEdgeStyle;rounded=0;orthogonalLoop=1;jettySize=auto;html=1;entryX=0;entryY=0.75;entryDx=0;entryDy=0;" edge="1" parent="1" source="whqrFeRvGs1NHrdnqAI_-12" target="whqrFeRvGs1NHrdnqAI_-45">
          <mxGeometry relative="1" as="geometry">
            <mxPoint x="830" y="500" as="sourcePoint" />
            <mxPoint x="900" y="563" as="targetPoint" />
          </mxGeometry>
        </mxCell>
        <mxCell id="whqrFeRvGs1NHrdnqAI_-66" value="Icon Album" style="rounded=0;whiteSpace=wrap;html=1;" vertex="1" parent="1">
          <mxGeometry x="460" y="750" width="40" height="80" as="geometry" />
        </mxCell>
        <mxCell id="whqrFeRvGs1NHrdnqAI_-71" value="Icon&lt;br&gt;Story" style="rounded=0;whiteSpace=wrap;html=1;" vertex="1" parent="1">
          <mxGeometry x="505" y="750" width="40" height="80" as="geometry" />
        </mxCell>
        <mxCell id="whqrFeRvGs1NHrdnqAI_-72" value="Icon Device" style="rounded=0;whiteSpace=wrap;html=1;" vertex="1" parent="1">
          <mxGeometry x="600" y="750" width="40" height="80" as="geometry" />
        </mxCell>
        <mxCell id="whqrFeRvGs1NHrdnqAI_-73" value="Icon&lt;br&gt;Diving" style="rounded=0;whiteSpace=wrap;html=1;" vertex="1" parent="1">
          <mxGeometry x="550" y="750" width="40" height="80" as="geometry" />
        </mxCell>
        <mxCell id="whqrFeRvGs1NHrdnqAI_-74" value="Icon&amp;nbsp;&lt;br&gt;photo and video" style="rounded=0;whiteSpace=wrap;html=1;" vertex="1" parent="1">
          <mxGeometry x="340" y="750" width="40" height="80" as="geometry" />
        </mxCell>
        <mxCell id="whqrFeRvGs1NHrdnqAI_-75" value="Icon heartbeat" style="rounded=0;whiteSpace=wrap;html=1;" vertex="1" parent="1">
          <mxGeometry x="260" y="750" width="60" height="80" as="geometry" />
        </mxCell>
        <mxCell id="whqrFeRvGs1NHrdnqAI_-77" value="" style="edgeStyle=orthogonalEdgeStyle;rounded=0;orthogonalLoop=1;jettySize=auto;html=1;entryX=0.5;entryY=0;entryDx=0;entryDy=0;exitX=0.5;exitY=1;exitDx=0;exitDy=0;" edge="1" parent="1" source="whqrFeRvGs1NHrdnqAI_-9" target="whqrFeRvGs1NHrdnqAI_-72">
          <mxGeometry relative="1" as="geometry">
            <mxPoint x="555" y="700" as="sourcePoint" />
            <mxPoint x="600" y="760" as="targetPoint" />
          </mxGeometry>
        </mxCell>
        <mxCell id="whqrFeRvGs1NHrdnqAI_-78" value="" style="edgeStyle=orthogonalEdgeStyle;rounded=0;orthogonalLoop=1;jettySize=auto;html=1;entryX=0.5;entryY=0;entryDx=0;entryDy=0;" edge="1" parent="1" target="whqrFeRvGs1NHrdnqAI_-71">
          <mxGeometry relative="1" as="geometry">
            <mxPoint x="545" y="690" as="sourcePoint" />
            <mxPoint x="650" y="760" as="targetPoint" />
          </mxGeometry>
        </mxCell>
        <mxCell id="whqrFeRvGs1NHrdnqAI_-79" value="" style="edgeStyle=orthogonalEdgeStyle;rounded=0;orthogonalLoop=1;jettySize=auto;html=1;entryX=0.5;entryY=0;entryDx=0;entryDy=0;exitX=0.5;exitY=1;exitDx=0;exitDy=0;" edge="1" parent="1" source="whqrFeRvGs1NHrdnqAI_-9" target="whqrFeRvGs1NHrdnqAI_-66">
          <mxGeometry relative="1" as="geometry">
            <mxPoint x="575" y="720" as="sourcePoint" />
            <mxPoint x="555" y="760" as="targetPoint" />
          </mxGeometry>
        </mxCell>
        <mxCell id="whqrFeRvGs1NHrdnqAI_-81" value="" style="edgeStyle=orthogonalEdgeStyle;rounded=0;orthogonalLoop=1;jettySize=auto;html=1;exitX=0.5;exitY=1;exitDx=0;exitDy=0;entryX=0.5;entryY=0;entryDx=0;entryDy=0;" edge="1" parent="1" source="whqrFeRvGs1NHrdnqAI_-8" target="whqrFeRvGs1NHrdnqAI_-74">
          <mxGeometry relative="1" as="geometry">
            <mxPoint x="350" y="700" as="sourcePoint" />
            <mxPoint x="300" y="760" as="targetPoint" />
          </mxGeometry>
        </mxCell>
        <mxCell id="whqrFeRvGs1NHrdnqAI_-82" value="tap screen" style="rounded=0;whiteSpace=wrap;html=1;" vertex="1" parent="1">
          <mxGeometry x="329" y="25" width="40" height="80" as="geometry" />
        </mxCell>
        <mxCell id="whqrFeRvGs1NHrdnqAI_-83" value="view/ hear" style="rounded=0;whiteSpace=wrap;html=1;" vertex="1" parent="1">
          <mxGeometry x="374" y="25" width="40" height="80" as="geometry" />
        </mxCell>
        <mxCell id="whqrFeRvGs1NHrdnqAI_-86" value="click button" style="rounded=0;whiteSpace=wrap;html=1;" vertex="1" parent="1">
          <mxGeometry x="477.5" y="25" width="40" height="80" as="geometry" />
        </mxCell>
        <mxCell id="whqrFeRvGs1NHrdnqAI_-87" value="view/ hear" style="rounded=0;whiteSpace=wrap;html=1;" vertex="1" parent="1">
          <mxGeometry x="522.5" y="25" width="40" height="80" as="geometry" />
        </mxCell>
        <mxCell id="whqrFeRvGs1NHrdnqAI_-88" value="tap screen" style="rounded=0;whiteSpace=wrap;html=1;" vertex="1" parent="1">
          <mxGeometry x="570" y="25" width="40" height="80" as="geometry" />
        </mxCell>
        <mxCell id="whqrFeRvGs1NHrdnqAI_-90" value="" style="edgeStyle=orthogonalEdgeStyle;rounded=0;orthogonalLoop=1;jettySize=auto;html=1;entryX=0.5;entryY=1;entryDx=0;entryDy=0;exitX=0.5;exitY=0;exitDx=0;exitDy=0;" edge="1" parent="1" source="whqrFeRvGs1NHrdnqAI_-6" target="whqrFeRvGs1NHrdnqAI_-82">
          <mxGeometry relative="1" as="geometry">
            <mxPoint x="390" y="170" as="sourcePoint" />
            <mxPoint x="404" y="115" as="targetPoint" />
          </mxGeometry>
        </mxCell>
        <mxCell id="whqrFeRvGs1NHrdnqAI_-92" value="" style="edgeStyle=orthogonalEdgeStyle;rounded=0;orthogonalLoop=1;jettySize=auto;html=1;entryX=0.5;entryY=1;entryDx=0;entryDy=0;exitX=0.5;exitY=0;exitDx=0;exitDy=0;" edge="1" parent="1" source="whqrFeRvGs1NHrdnqAI_-7" target="whqrFeRvGs1NHrdnqAI_-88">
          <mxGeometry relative="1" as="geometry">
            <mxPoint x="530" y="170" as="sourcePoint" />
            <mxPoint x="553" y="115" as="targetPoint" />
          </mxGeometry>
        </mxCell>
        <mxCell id="whqrFeRvGs1NHrdnqAI_-93" value="" style="edgeStyle=orthogonalEdgeStyle;rounded=0;orthogonalLoop=1;jettySize=auto;html=1;entryX=0.5;entryY=1;entryDx=0;entryDy=0;exitX=0.5;exitY=0;exitDx=0;exitDy=0;" edge="1" parent="1" source="whqrFeRvGs1NHrdnqAI_-7" target="whqrFeRvGs1NHrdnqAI_-86">
          <mxGeometry relative="1" as="geometry">
            <mxPoint x="540" y="180" as="sourcePoint" />
            <mxPoint x="600" y="115" as="targetPoint" />
          </mxGeometry>
        </mxCell>
        <mxCell id="whqrFeRvGs1NHrdnqAI_-94" value="Click the Next button to switch displays." style="rounded=0;whiteSpace=wrap;html=1;" vertex="1" parent="1">
          <mxGeometry x="-450" y="60" width="430" height="40" as="geometry" />
        </mxCell>
        <mxCell id="whqrFeRvGs1NHrdnqAI_-96" value="Click the Previous button to go back 1 screen." style="rounded=0;whiteSpace=wrap;html=1;" vertex="1" parent="1">
          <mxGeometry x="-450" y="120" width="430" height="40" as="geometry" />
        </mxCell>
        <mxCell id="whqrFeRvGs1NHrdnqAI_-97" value="Press the Camera button to connect the camera on the mask" style="rounded=0;whiteSpace=wrap;html=1;" vertex="1" parent="1">
          <mxGeometry x="-448" y="171" width="430" height="40" as="geometry" />
        </mxCell>
        <mxCell id="whqrFeRvGs1NHrdnqAI_-98" value="See date, time, temperature" style="rounded=0;whiteSpace=wrap;html=1;" vertex="1" parent="1">
          <mxGeometry x="-448" y="220" width="430" height="40" as="geometry" />
        </mxCell>
        <mxCell id="whqrFeRvGs1NHrdnqAI_-99" value="See diving time and depth" style="rounded=0;whiteSpace=wrap;html=1;" vertex="1" parent="1">
          <mxGeometry x="-450" y="270" width="430" height="40" as="geometry" />
        </mxCell>
        <mxCell id="whqrFeRvGs1NHrdnqAI_-100" value="check heart rate" style="rounded=0;whiteSpace=wrap;html=1;" vertex="1" parent="1">
          <mxGeometry x="-450" y="320" width="430" height="40" as="geometry" />
        </mxCell>
        <mxCell id="whqrFeRvGs1NHrdnqAI_-101" value="determine the direction" style="rounded=0;whiteSpace=wrap;html=1;" vertex="1" parent="1">
          <mxGeometry x="-450" y="370" width="430" height="40" as="geometry" />
        </mxCell>
        <mxCell id="whqrFeRvGs1NHrdnqAI_-102" value="Check the amount of oxygen in the tank" style="rounded=0;whiteSpace=wrap;html=1;" vertex="1" parent="1">
          <mxGeometry x="-448" y="420" width="430" height="40" as="geometry" />
        </mxCell>
        <mxCell id="whqrFeRvGs1NHrdnqAI_-103" value="Press the button on the screen to take a photo or record a video." style="rounded=0;whiteSpace=wrap;html=1;" vertex="1" parent="1">
          <mxGeometry x="-450" y="480" width="430" height="40" as="geometry" />
        </mxCell>
        <mxCell id="whqrFeRvGs1NHrdnqAI_-104" value="View photos and videos taken while diving." style="rounded=0;whiteSpace=wrap;html=1;" vertex="1" parent="1">
          <mxGeometry x="-450" y="580" width="430" height="40" as="geometry" />
        </mxCell>
        <mxCell id="whqrFeRvGs1NHrdnqAI_-105" value="share the moment" style="rounded=0;whiteSpace=wrap;html=1;" vertex="1" parent="1">
          <mxGeometry x="-450" y="635" width="430" height="40" as="geometry" />
        </mxCell>
        <mxCell id="whqrFeRvGs1NHrdnqAI_-106" value="See list of diving locations and dates and times, see details for each location." style="rounded=0;whiteSpace=wrap;html=1;" vertex="1" parent="1">
          <mxGeometry x="-450" y="685" width="430" height="40" as="geometry" />
        </mxCell>
        <mxCell id="whqrFeRvGs1NHrdnqAI_-107" value="Connects to diving watch." style="rounded=0;whiteSpace=wrap;html=1;" vertex="1" parent="1">
          <mxGeometry x="-450" y="735" width="430" height="40" as="geometry" />
        </mxCell>
        <mxCell id="whqrFeRvGs1NHrdnqAI_-109" value="" style="edgeStyle=orthogonalEdgeStyle;rounded=0;orthogonalLoop=1;jettySize=auto;html=1;entryX=1;entryY=0.5;entryDx=0;entryDy=0;exitX=0;exitY=0.5;exitDx=0;exitDy=0;" edge="1" parent="1" source="whqrFeRvGs1NHrdnqAI_-11" target="whqrFeRvGs1NHrdnqAI_-102">
          <mxGeometry relative="1" as="geometry">
            <mxPoint x="80" y="350" as="sourcePoint" />
            <mxPoint x="27" y="360" as="targetPoint" />
          </mxGeometry>
        </mxCell>
        <mxCell id="whqrFeRvGs1NHrdnqAI_-110" value="" style="edgeStyle=orthogonalEdgeStyle;rounded=0;orthogonalLoop=1;jettySize=auto;html=1;entryX=1;entryY=0.75;entryDx=0;entryDy=0;exitX=0;exitY=0.5;exitDx=0;exitDy=0;" edge="1" parent="1" source="whqrFeRvGs1NHrdnqAI_-11" target="whqrFeRvGs1NHrdnqAI_-101">
          <mxGeometry relative="1" as="geometry">
            <mxPoint x="90" y="360" as="sourcePoint" />
            <mxPoint x="29" y="300" as="targetPoint" />
          </mxGeometry>
        </mxCell>
        <mxCell id="whqrFeRvGs1NHrdnqAI_-111" value="" style="edgeStyle=orthogonalEdgeStyle;rounded=0;orthogonalLoop=1;jettySize=auto;html=1;entryX=1;entryY=0.5;entryDx=0;entryDy=0;exitX=0;exitY=0.5;exitDx=0;exitDy=0;" edge="1" parent="1" source="whqrFeRvGs1NHrdnqAI_-11" target="whqrFeRvGs1NHrdnqAI_-100">
          <mxGeometry relative="1" as="geometry">
            <mxPoint x="100" y="370" as="sourcePoint" />
            <mxPoint x="27" y="260" as="targetPoint" />
          </mxGeometry>
        </mxCell>
        <mxCell id="whqrFeRvGs1NHrdnqAI_-112" value="" style="edgeStyle=orthogonalEdgeStyle;rounded=0;orthogonalLoop=1;jettySize=auto;html=1;entryX=1;entryY=0.25;entryDx=0;entryDy=0;exitX=0;exitY=0.5;exitDx=0;exitDy=0;" edge="1" parent="1" source="whqrFeRvGs1NHrdnqAI_-11" target="whqrFeRvGs1NHrdnqAI_-99">
          <mxGeometry relative="1" as="geometry">
            <mxPoint x="110" y="380" as="sourcePoint" />
            <mxPoint x="27" y="200" as="targetPoint" />
          </mxGeometry>
        </mxCell>
        <mxCell id="whqrFeRvGs1NHrdnqAI_-113" value="" style="edgeStyle=orthogonalEdgeStyle;rounded=0;orthogonalLoop=1;jettySize=auto;html=1;entryX=1;entryY=0.5;entryDx=0;entryDy=0;exitX=0;exitY=0.5;exitDx=0;exitDy=0;" edge="1" parent="1" source="whqrFeRvGs1NHrdnqAI_-11" target="whqrFeRvGs1NHrdnqAI_-98">
          <mxGeometry relative="1" as="geometry">
            <mxPoint x="120" y="390" as="sourcePoint" />
            <mxPoint x="27" y="140" as="targetPoint" />
          </mxGeometry>
        </mxCell>
        <mxCell id="whqrFeRvGs1NHrdnqAI_-115" value="" style="edgeStyle=orthogonalEdgeStyle;rounded=0;orthogonalLoop=1;jettySize=auto;html=1;entryX=1;entryY=0.5;entryDx=0;entryDy=0;exitX=0;exitY=0.5;exitDx=0;exitDy=0;" edge="1" parent="1" source="whqrFeRvGs1NHrdnqAI_-11" target="whqrFeRvGs1NHrdnqAI_-97">
          <mxGeometry relative="1" as="geometry">
            <mxPoint x="130" y="400" as="sourcePoint" />
            <mxPoint x="29" y="100" as="targetPoint" />
          </mxGeometry>
        </mxCell>
        <mxCell id="whqrFeRvGs1NHrdnqAI_-116" value="" style="edgeStyle=orthogonalEdgeStyle;rounded=0;orthogonalLoop=1;jettySize=auto;html=1;entryX=1;entryY=0.5;entryDx=0;entryDy=0;exitX=0;exitY=0.5;exitDx=0;exitDy=0;" edge="1" parent="1" source="whqrFeRvGs1NHrdnqAI_-11" target="whqrFeRvGs1NHrdnqAI_-96">
          <mxGeometry relative="1" as="geometry">
            <mxPoint x="140" y="410" as="sourcePoint" />
            <mxPoint x="29" y="51" as="targetPoint" />
          </mxGeometry>
        </mxCell>
        <mxCell id="whqrFeRvGs1NHrdnqAI_-117" value="" style="edgeStyle=orthogonalEdgeStyle;rounded=0;orthogonalLoop=1;jettySize=auto;html=1;entryX=1;entryY=0.75;entryDx=0;entryDy=0;exitX=0;exitY=0.5;exitDx=0;exitDy=0;" edge="1" parent="1" source="whqrFeRvGs1NHrdnqAI_-11" target="whqrFeRvGs1NHrdnqAI_-94">
          <mxGeometry relative="1" as="geometry">
            <mxPoint x="150" y="420" as="sourcePoint" />
            <mxPoint x="27" as="targetPoint" />
          </mxGeometry>
        </mxCell>
        <mxCell id="whqrFeRvGs1NHrdnqAI_-119" value="" style="edgeStyle=orthogonalEdgeStyle;rounded=0;orthogonalLoop=1;jettySize=auto;html=1;entryX=1;entryY=0.5;entryDx=0;entryDy=0;exitX=0.5;exitY=1;exitDx=0;exitDy=0;" edge="1" parent="1" source="whqrFeRvGs1NHrdnqAI_-10" target="whqrFeRvGs1NHrdnqAI_-104">
          <mxGeometry relative="1" as="geometry">
            <mxPoint x="80" y="490" as="sourcePoint" />
            <mxPoint x="27" y="515" as="targetPoint" />
          </mxGeometry>
        </mxCell>
        <mxCell id="whqrFeRvGs1NHrdnqAI_-120" value="" style="edgeStyle=orthogonalEdgeStyle;rounded=0;orthogonalLoop=1;jettySize=auto;html=1;entryX=0.998;entryY=0.69;entryDx=0;entryDy=0;entryPerimeter=0;exitX=0.5;exitY=1;exitDx=0;exitDy=0;" edge="1" parent="1" source="whqrFeRvGs1NHrdnqAI_-10" target="whqrFeRvGs1NHrdnqAI_-106">
          <mxGeometry relative="1" as="geometry">
            <mxPoint x="90" y="500" as="sourcePoint" />
            <mxPoint x="27" y="460" as="targetPoint" />
          </mxGeometry>
        </mxCell>
        <mxCell id="whqrFeRvGs1NHrdnqAI_-121" value="" style="edgeStyle=orthogonalEdgeStyle;rounded=0;orthogonalLoop=1;jettySize=auto;html=1;entryX=0.999;entryY=0.59;entryDx=0;entryDy=0;entryPerimeter=0;exitX=0.5;exitY=1;exitDx=0;exitDy=0;" edge="1" parent="1" source="whqrFeRvGs1NHrdnqAI_-10" target="whqrFeRvGs1NHrdnqAI_-107">
          <mxGeometry relative="1" as="geometry">
            <mxPoint x="100" y="510" as="sourcePoint" />
            <mxPoint x="26" y="573" as="targetPoint" />
          </mxGeometry>
        </mxCell>
      </root>
    </mxGraphModel>
  </diagram>
</mxfile>
